<svg xmlns="http://www.w3.org/2000/svg" viewBox="0 0 120 120" fill="none">
  <defs>
    <linearGradient id="g1" x1="0" y1="0" x2="120" y2="120" gradientUnits="userSpaceOnUse">
      <stop offset="0%" stop-color="#6366f1"/>
      <stop offset="50%" stop-color="#8b5cf6"/>
      <stop offset="100%" stop-color="#a855f7"/>
    </linearGradient>
    <linearGradient id="g2" x1="20" y1="20" x2="100" y2="100" gradientUnits="userSpaceOnUse">
      <stop offset="0%" stop-color="#e0e7ff" stop-opacity="0.9"/>
      <stop offset="100%" stop-color="#c4b5fd" stop-opacity="0.4"/>
    </linearGradient>
    <linearGradient id="g3" x1="40" y1="30" x2="80" y2="90" gradientUnits="userSpaceOnUse">
      <stop offset="0%" stop-color="#a78bfa"/>
      <stop offset="100%" stop-color="#7c3aed"/>
    </linearGradient>
  </defs>
  <!-- Círculo de fondo -->
  <circle cx="60" cy="60" r="56" fill="url(#g1)" opacity="0.12"/>
  <circle cx="60" cy="60" r="56" stroke="url(#g1)" stroke-width="1.5" opacity="0.25"/>
  <!-- Círculo interior decorativo -->
  <circle cx="60" cy="60" r="42" fill="url(#g1)" opacity="0.08"/>
  <!-- Conexiones de red neuronal (paths) -->
  <path d="M40 35 Q60 28 80 35" stroke="url(#g1)" stroke-width="1.8" fill="none" opacity="0.5"/>
  <path d="M35 50 Q28 70 35 85" stroke="url(#g1)" stroke-width="1.8" fill="none" opacity="0.5"/>
  <path d="M85 50 Q92 70 85 85" stroke="url(#g1)" stroke-width="1.8" fill="none" opacity="0.5"/>
  <path d="M40 85 Q60 92 80 85" stroke="url(#g1)" stroke-width="1.8" fill="none" opacity="0.5"/>
  <path d="M48 42 Q60 35 72 42" stroke="url(#g1)" stroke-width="1.8" fill="none" opacity="0.35"/>
  <path d="M42 78 Q60 85 78 78" stroke="url(#g1)" stroke-width="1.8" fill="none" opacity="0.35"/>
  <!-- Nodos de la red -->
  <circle cx="60" cy="60" r="18" fill="url(#g3)" opacity="0.15"/>
  <circle cx="60" cy="60" r="18" stroke="url(#g1)" stroke-width="2"/>
  <!-- "B" central estilizada -->
  <text x="60" y="67" font-family="system-ui, -apple-system, sans-serif" font-size="32" font-weight="700" text-anchor="middle" fill="url(#g1)" letter-spacing="-1">B</text>
  <!-- Nodos pequeños periféricos -->
  <circle cx="40" cy="35" r="4" fill="url(#g1)" opacity="0.7"/>
  <circle cx="80" cy="35" r="4" fill="url(#g1)" opacity="0.7"/>
  <circle cx="35" cy="50" r="3.5" fill="url(#g1)" opacity="0.6"/>
  <circle cx="35" cy="85" r="4" fill="url(#g1)" opacity="0.7"/>
  <circle cx="85" cy="50" r="3.5" fill="url(#g1)" opacity="0.6"/>
  <circle cx="85" cy="85" r="4" fill="url(#g1)" opacity="0.7"/>
  <circle cx="48" cy="42" r="2.5" fill="url(#g1)" opacity="0.45"/>
  <circle cx="72" cy="42" r="2.5" fill="url(#g1)" opacity="0.45"/>
  <circle cx="42" cy="78" r="2.5" fill="url(#g1)" opacity="0.45"/>
  <circle cx="78" cy="78" r="2.5" fill="url(#g1)" opacity="0.45"/>
  <circle cx="60" cy="28" r="3" fill="url(#g1)" opacity="0.5"/>
  <circle cx="60" cy="92" r="3" fill="url(#g1)" opacity="0.5"/>
  <circle cx="28" cy="60" r="3" fill="url(#g1)" opacity="0.5"/>
  <circle cx="92" cy="60" r="3" fill="url(#g1)" opacity="0.5"/>
  <!-- Partículas pequeñas decorativas -->
  <circle cx="50" cy="25" r="1.5" fill="url(#g1)" opacity="0.35"/>
  <circle cx="75" cy="28" r="1.5" fill="url(#g1)" opacity="0.35"/>
  <circle cx="28" cy="72" r="1.5" fill="url(#g1)" opacity="0.35"/>
  <circle cx="92" cy="48" r="1.5" fill="url(#g1)" opacity="0.35"/>
  <circle cx="48" cy="95" r="1.5" fill="url(#g1)" opacity="0.35"/>
  <circle cx="72" cy="92" r="1.5" fill="url(#g1)" opacity="0.35"/>
  <circle cx="32" cy="35" r="1.5" fill="url(#g1)" opacity="0.25"/>
  <circle cx="88" cy="35" r="1.5" fill="url(#g1)" opacity="0.25"/>
</svg>
